<svg width="30" height="30" fill="none" xmlns="http://www.w3.org/2000/svg"><path fill-rule="evenodd" clip-rule="evenodd" d="M0 2.5A2.5 2.5 0 012.5 0h25A2.5 2.5 0 0130 2.5v25a2.5 2.5 0 01-2.5 2.5h-25A2.5 2.5 0 010 27.5v-25zm10.833 9.167a2.5 2.5 0 11-5 0 2.5 2.5 0 015 0zM5 18.106c0-.099.04-.23.213-.405.182-.184.47-.369.85-.534.761-.334 1.69-.5 2.27-.5.581 0 1.509.166 2.271.5.38.165.667.35.85.533.174.176.213.308.213.406v2.727h1.666v-2.727c0-.657-.308-1.188-.697-1.58-.383-.384-.875-.673-1.364-.887-.974-.425-2.13-.639-2.939-.639-.81 0-1.965.214-2.938.64-.49.213-.982.502-1.364.886-.39.392-.698.923-.698 1.58v2.727H5v-2.727zm13.547-.405c-.175.175-.214.306-.214.405v2.727h-1.666v-2.727c0-.657.308-1.188.697-1.58.383-.384.875-.673 1.364-.887.974-.425 2.13-.639 2.939-.639.809 0 1.965.214 2.938.64.49.213.982.502 1.364.886.39.392.698.923.698 1.58v2.727H25v-2.727c0-.099-.04-.23-.213-.405-.182-.184-.47-.369-.85-.534-.761-.334-1.69-.5-2.27-.5-.581 0-1.509.166-2.271.5-.38.165-.667.35-.85.533zm3.12-3.534a2.5 2.5 0 100-5 2.5 2.5 0 000 5zM17.5 10a2.5 2.5 0 11-5 0 2.5 2.5 0 015 0zm-3.962 5.972c.059-.066.14-.12.376-.142a3.9 3.9 0 01.462-.01l.168.004c.142.004.303.01.456.01.153 0 .314-.006.456-.009l.168-.005c.188-.004.336-.003.462.01.236.022.317.076.376.142l1.243-1.11c-.438-.49-.983-.645-1.457-.692a8.283 8.283 0 00-.933-.01c-.118.003-.227.007-.315.007s-.197-.004-.315-.007a8.105 8.105 0 00-.933.01c-.474.047-1.02.202-1.457.692l1.243 1.11z" fill="#A1C5E9"/></svg>