<svg width="31" height="30" fill="none" xmlns="http://www.w3.org/2000/svg"><path d="M22.067 14.183l2.616-2.616-6.25-6.25-2.616 2.616-6.9-6.883a3.34 3.34 0 00-4.717 0L1.033 4.217a3.34 3.34 0 000 4.716l6.884 6.884L0 23.75V30h6.25l7.933-7.933 6.884 6.883c1.583 1.583 3.716 1 4.716 0l3.167-3.167a3.34 3.34 0 000-4.716l-6.883-6.884zM10.3 13.45L3.4 6.567 6.55 3.4l2.117 2.117L6.7 7.5l2.35 2.35 1.983-1.983 2.417 2.416-3.15 3.167zM23.433 26.6l-6.883-6.883 3.167-3.167 2.416 2.417-1.983 1.983 2.35 2.35 1.983-1.983 2.117 2.116-3.167 3.167zm6.084-19.867a1.66 1.66 0 000-2.35l-3.9-3.9c-.784-.783-1.867-.483-2.35 0l-3.05 3.05 6.25 6.25 3.05-3.05z" fill="#A1C5E9"/></svg>