<svg width="160" height="25" fill="none" xmlns="http://www.w3.org/2000/svg"><path d="M7.728 18.168c-1.968 0-3.584-.464-4.848-1.392-1.264-.944-1.944-2.288-2.04-4.032h5.016c.048.592.224 1.024.528 1.296.304.272.696.408 1.176.408.432 0 .784-.104 1.056-.312.288-.224.432-.528.432-.912 0-.496-.232-.88-.696-1.152-.464-.272-1.216-.576-2.256-.912-1.104-.368-2-.72-2.688-1.056-.672-.352-1.264-.856-1.776-1.512C1.136 7.92.888 7.048.888 5.976c0-1.088.272-2.016.816-2.784C2.248 2.408 3 1.816 3.96 1.416c.96-.4 2.048-.6 3.264-.6 1.968 0 3.536.464 4.704 1.392 1.184.912 1.816 2.2 1.896 3.864H8.712c-.016-.512-.176-.896-.48-1.152-.288-.256-.664-.384-1.128-.384-.352 0-.64.104-.864.312-.224.208-.336.504-.336.888 0 .32.12.6.36.84.256.224.568.424.936.6.368.16.912.368 1.632.624 1.072.368 1.952.736 2.64 1.104a5.093 5.093 0 011.8 1.512c.512.64.768 1.456.768 2.448 0 1.008-.256 1.912-.768 2.712-.496.8-1.224 1.432-2.184 1.896-.944.464-2.064.696-3.36.696zm7.73-6.912c0-1.392.249-2.608.745-3.648.512-1.04 1.2-1.84 2.064-2.4.88-.56 1.856-.84 2.928-.84.928 0 1.728.184 2.4.552a3.995 3.995 0 011.56 1.488V4.536h4.704V18h-4.704v-1.872c-.368.624-.896 1.12-1.584 1.488-.672.368-1.464.552-2.376.552a5.342 5.342 0 01-2.928-.84c-.864-.56-1.552-1.36-2.064-2.4-.496-1.056-.744-2.28-.744-3.672zm9.697 0c0-.864-.24-1.544-.72-2.04a2.27 2.27 0 00-1.728-.744c-.704 0-1.288.248-1.752.744-.464.48-.696 1.16-.696 2.04 0 .864.232 1.552.696 2.064.464.496 1.048.744 1.752.744a2.27 2.27 0 001.728-.744c.48-.496.72-1.184.72-2.064zM40.963 18l-3.72-5.52V18H32.54V.24h4.704v9.576l3.72-5.28h5.64L41.3 11.304 46.7 18h-5.736zm6.347-6.744c0-1.392.248-2.608.744-3.648.512-1.04 1.2-1.84 2.064-2.4.88-.56 1.856-.84 2.928-.84.928 0 1.728.184 2.4.552a3.995 3.995 0 011.56 1.488V4.536h4.704V18h-4.704v-1.872c-.368.624-.896 1.12-1.584 1.488-.672.368-1.464.552-2.376.552a5.342 5.342 0 01-2.928-.84c-.864-.56-1.552-1.36-2.064-2.4-.496-1.056-.744-2.28-.744-3.672zm9.696 0c0-.864-.24-1.544-.72-2.04a2.27 2.27 0 00-1.728-.744c-.704 0-1.288.248-1.752.744-.464.48-.696 1.16-.696 2.04 0 .864.232 1.552.696 2.064.464.496 1.048.744 1.752.744a2.27 2.27 0 001.728-.744c.48-.496.72-1.184.72-2.064zm18.089 3.984h-6L68.183 18h-4.944l6.168-16.92h5.424L80.975 18h-4.968l-.912-2.76zm-1.176-3.6l-1.824-5.472-1.8 5.472h3.624zm13.557-7.272c.912 0 1.704.184 2.376.552.688.368 1.216.864 1.584 1.488V4.536h4.704v13.32c0 1.264-.24 2.4-.72 3.408-.48 1.024-1.232 1.84-2.256 2.448-1.008.608-2.288.912-3.84.912-2.08 0-3.744-.488-4.992-1.464-1.248-.976-1.96-2.304-2.136-3.984h4.632c.096.432.336.768.72 1.008.384.24.88.36 1.488.36 1.6 0 2.4-.896 2.4-2.688v-1.728c-.368.624-.896 1.12-1.584 1.488-.672.368-1.464.552-2.376.552a5.342 5.342 0 01-2.928-.84c-.864-.56-1.552-1.36-2.064-2.4-.496-1.056-.744-2.28-.744-3.672 0-1.392.248-2.608.744-3.648.512-1.04 1.2-1.84 2.064-2.4.88-.56 1.856-.84 2.928-.84zm3.96 6.888c0-.864-.24-1.544-.72-2.04a2.27 2.27 0 00-1.728-.744c-.704 0-1.288.248-1.752.744-.464.48-.696 1.16-.696 2.04 0 .864.232 1.552.696 2.064.464.496 1.048.744 1.752.744a2.27 2.27 0 001.728-.744c.48-.496.72-1.184.72-2.064zm20.249-.144c0 .368-.024.736-.072 1.104h-8.904c.048.736.248 1.288.6 1.656.368.352.832.528 1.392.528.784 0 1.344-.352 1.68-1.056h5.016a5.89 5.89 0 01-1.224 2.496c-.592.72-1.344 1.288-2.256 1.704-.912.416-1.92.624-3.024.624-1.328 0-2.512-.28-3.552-.84a6.135 6.135 0 01-2.424-2.4c-.576-1.04-.864-2.264-.864-3.672 0-1.408.288-2.624.864-3.648a5.976 5.976 0 012.4-2.4c1.04-.56 2.232-.84 3.576-.84 1.328 0 2.504.272 3.528.816a5.857 5.857 0 012.4 2.352c.576 1.008.864 2.2.864 3.576zm-4.8-1.176c0-.576-.192-1.024-.576-1.344-.384-.336-.864-.504-1.44-.504s-1.048.16-1.416.48c-.368.304-.608.76-.72 1.368h4.152zm15.533-5.52c1.552 0 2.784.52 3.696 1.56.912 1.024 1.368 2.416 1.368 4.176V18h-4.704v-7.224c0-.768-.2-1.368-.6-1.8-.4-.448-.936-.672-1.608-.672-.704 0-1.256.224-1.656.672-.4.432-.6 1.032-.6 1.8V18h-4.704V4.536h4.704v1.92a4.54 4.54 0 011.68-1.464c.704-.384 1.512-.576 2.424-.576zm6.877 6.84c0-1.392.288-2.608.864-3.648a5.975 5.975 0 012.4-2.4c1.04-.56 2.224-.84 3.552-.84 1.712 0 3.152.472 4.32 1.416 1.168.928 1.92 2.232 2.256 3.912h-4.992c-.288-.88-.848-1.32-1.68-1.32-.592 0-1.064.248-1.416.744-.336.48-.504 1.192-.504 2.136 0 .944.168 1.664.504 2.16.352.496.824.744 1.416.744.848 0 1.408-.44 1.68-1.32h4.992c-.336 1.664-1.088 2.968-2.256 3.912-1.168.944-2.608 1.416-4.32 1.416-1.328 0-2.512-.28-3.552-.84a5.975 5.975 0 01-2.4-2.4c-.576-1.04-.864-2.264-.864-3.672zm29.842-6.72l-8.544 19.872h-5.112l3.216-6.984-5.52-12.888h5.232l2.832 7.632 2.736-7.632h5.16z" fill="#fff"/></svg>