<svg width="18" height="18" fill="none" xmlns="http://www.w3.org/2000/svg"><path fill-rule="evenodd" clip-rule="evenodd" d="M17.533 8.988a8.535 8.535 0 01-.671 3.317 8.587 8.587 0 01-3.09 3.749 8.631 8.631 0 01-1.45.785 8.572 8.572 0 01-6.644 0 8.635 8.635 0 01-1.45-.785 8.604 8.604 0 01-3.09-3.749 8.492 8.492 0 01-.499-5.032 8.473 8.473 0 011.285-3.05 8.604 8.604 0 012.304-2.3A8.45 8.45 0 017.28.64a8.599 8.599 0 015.04.496 8.564 8.564 0 013.754 3.087 8.438 8.438 0 011.285 3.05 8.55 8.55 0 01.173 1.715zM5.89 2.406a7.288 7.288 0 00-4.022 5.082c.192.002 3.23.04 6.728-.888A43.815 43.815 0 005.89 2.406zM9.2 7.72C5.448 8.842 1.847 8.761 1.718 8.756c-.002.078-.006.154-.006.232a7.24 7.24 0 001.867 4.863c-.002-.004 1.992-3.537 5.925-4.807a7.11 7.11 0 01.287-.087A24.597 24.597 0 009.2 7.72zm4.612-4.193A7.258 7.258 0 009 1.712c-.593 0-1.167.071-1.718.204.11.146 1.478 1.96 2.725 4.245 2.75-1.03 3.787-2.608 3.805-2.634zm-3.524 6.635l-.048.016c-4.3 1.497-5.704 4.513-5.72 4.546A7.279 7.279 0 009 16.265c1.009 0 1.97-.204 2.845-.576-.108-.636-.532-2.864-1.557-5.526zm2.784 4.861a7.279 7.279 0 003.123-4.881c-.15-.049-2.19-.693-4.542-.317.956 2.623 1.345 4.76 1.419 5.198zm-2.504-7.778a22.844 22.844 0 01.641 1.432c2.504-.315 4.97.215 5.076.236a7.233 7.233 0 00-1.658-4.547c-.013.02-1.182 1.705-4.06 2.879z" fill="#fff"/></svg>