<svg width="32" height="34" fill="none" xmlns="http://www.w3.org/2000/svg"><path d="M13.333.333l12.164 3.8a1.667 1.667 0 011.17 1.592v2.942H30a1.667 1.667 0 011.667 1.666v3.334H10v-3.334a1.667 1.667 0 011.667-1.666h11.666V6.95l-10-3.127-10 3.127v12.34a6.667 6.667 0 002.597 5.282l.315.226 7.088 4.835 6.304-4.3h-7.97A1.666 1.666 0 0110 23.667V17h21.667v6.667A1.666 1.666 0 0130 25.333l-5.367.002a9.98 9.98 0 01-2.333 2.217l-8.967 6.115-8.966-6.114A10 10 0 010 19.29V5.725a1.667 1.667 0 011.17-1.59L13.333.333z" fill="#A1C5E9"/></svg>